<svg xmlns="http://www.w3.org/2000/svg" style="display:none">
<symbol id="home" viewBox="0 0 24 24"><path d="M3 11.5 12 4l9 7.5"/><path d="M5 10v10h14V10M9 20v-6h6v6"/></symbol>
<symbol id="pin" viewBox="0 0 24 24"><path d="M12 21s7-6.2 7-12A7 7 0 0 0 5 9c0 5.8 7 12 7 12Z"/><circle cx="12" cy="9" r="2.5"/></symbol>
<symbol id="satellite" viewBox="0 0 24 24"><path d="m7 7 10 10M5 5l4-1 3 3-1 4-6-6ZM19 19l-4 1-3-3 1-4 6 6Z"/><circle cx="12" cy="12" r="2"/></symbol>
<symbol id="map" viewBox="0 0 24 24"><path d="m3 6 6-3 6 3 6-3v15l-6 3-6-3-6 3V6Z"/><path d="M9 3v15M15 6v15"/></symbol>
<symbol id="cloud" viewBox="0 0 24 24"><path d="M7 18h10a4 4 0 0 0 .4-8A6 6 0 0 0 6 8.5 4.5 4.5 0 0 0 7 18Z"/></symbol>
</symbol></svg>
